<mxfile host="app.diagrams.net" modified="2023-11-06T11:29:53.380Z" agent="Mozilla/5.0 (Windows NT 10.0; Win64; x64) AppleWebKit/537.36 (KHTML, like Gecko) Chrome/119.0.0.0 Safari/537.36" etag="-Al_NJL6nbpdV_gTCDMI" version="22.0.8" type="device">
  <diagram name="Page-1" id="7RNCQt2wHfCoRPG7doAE">
    <mxGraphModel dx="1543" dy="1782" grid="1" gridSize="10" guides="1" tooltips="1" connect="1" arrows="1" fold="1" page="1" pageScale="1" pageWidth="827" pageHeight="1169" math="0" shadow="0">
      <root>
        <mxCell id="0" />
        <mxCell id="1" parent="0" />
        <mxCell id="vsT03FMYi7_P-uipVstn-6" value="Chambre" style="swimlane;fontStyle=0;childLayout=stackLayout;horizontal=1;startSize=20;horizontalStack=0;resizeParent=1;resizeParentMax=0;resizeLast=0;collapsible=1;marginBottom=0;whiteSpace=wrap;html=1;" vertex="1" parent="1">
          <mxGeometry x="-140" y="90" width="140" height="110" as="geometry" />
        </mxCell>
        <mxCell id="vsT03FMYi7_P-uipVstn-7" value="PK numC" style="text;strokeColor=none;fillColor=none;align=left;verticalAlign=middle;spacingLeft=4;spacingRight=4;overflow=hidden;points=[[0,0.5],[1,0.5]];portConstraint=eastwest;rotatable=0;whiteSpace=wrap;html=1;" vertex="1" parent="vsT03FMYi7_P-uipVstn-6">
          <mxGeometry y="20" width="140" height="30" as="geometry" />
        </mxCell>
        <mxCell id="vsT03FMYi7_P-uipVstn-8" value="Capacité" style="text;strokeColor=none;fillColor=none;align=left;verticalAlign=middle;spacingLeft=4;spacingRight=4;overflow=hidden;points=[[0,0.5],[1,0.5]];portConstraint=eastwest;rotatable=0;whiteSpace=wrap;html=1;" vertex="1" parent="vsT03FMYi7_P-uipVstn-6">
          <mxGeometry y="50" width="140" height="30" as="geometry" />
        </mxCell>
        <mxCell id="vsT03FMYi7_P-uipVstn-9" value="Superficie" style="text;strokeColor=none;fillColor=none;align=left;verticalAlign=middle;spacingLeft=4;spacingRight=4;overflow=hidden;points=[[0,0.5],[1,0.5]];portConstraint=eastwest;rotatable=0;whiteSpace=wrap;html=1;" vertex="1" parent="vsT03FMYi7_P-uipVstn-6">
          <mxGeometry y="80" width="140" height="30" as="geometry" />
        </mxCell>
        <mxCell id="vsT03FMYi7_P-uipVstn-10" value="Departemment" style="swimlane;fontStyle=0;childLayout=stackLayout;horizontal=1;startSize=20;horizontalStack=0;resizeParent=1;resizeParentMax=0;resizeLast=0;collapsible=1;marginBottom=0;whiteSpace=wrap;html=1;" vertex="1" parent="1">
          <mxGeometry x="-150" y="250" width="140" height="110" as="geometry" />
        </mxCell>
        <mxCell id="vsT03FMYi7_P-uipVstn-11" value="PK niomDep" style="text;strokeColor=none;fillColor=none;align=left;verticalAlign=middle;spacingLeft=4;spacingRight=4;overflow=hidden;points=[[0,0.5],[1,0.5]];portConstraint=eastwest;rotatable=0;whiteSpace=wrap;html=1;" vertex="1" parent="vsT03FMYi7_P-uipVstn-10">
          <mxGeometry y="20" width="140" height="30" as="geometry" />
        </mxCell>
        <mxCell id="vsT03FMYi7_P-uipVstn-12" value="DirecteurDep" style="text;strokeColor=none;fillColor=none;align=left;verticalAlign=middle;spacingLeft=4;spacingRight=4;overflow=hidden;points=[[0,0.5],[1,0.5]];portConstraint=eastwest;rotatable=0;whiteSpace=wrap;html=1;" vertex="1" parent="vsT03FMYi7_P-uipVstn-10">
          <mxGeometry y="50" width="140" height="30" as="geometry" />
        </mxCell>
        <mxCell id="vsT03FMYi7_P-uipVstn-13" value="TelDep" style="text;strokeColor=none;fillColor=none;align=left;verticalAlign=middle;spacingLeft=4;spacingRight=4;overflow=hidden;points=[[0,0.5],[1,0.5]];portConstraint=eastwest;rotatable=0;whiteSpace=wrap;html=1;" vertex="1" parent="vsT03FMYi7_P-uipVstn-10">
          <mxGeometry y="80" width="140" height="30" as="geometry" />
        </mxCell>
        <mxCell id="vsT03FMYi7_P-uipVstn-14" value="Personne" style="swimlane;fontStyle=0;childLayout=stackLayout;horizontal=1;startSize=20;horizontalStack=0;resizeParent=1;resizeParentMax=0;resizeLast=0;collapsible=1;marginBottom=0;whiteSpace=wrap;html=1;" vertex="1" parent="1">
          <mxGeometry x="40" y="-330" width="140" height="140" as="geometry" />
        </mxCell>
        <mxCell id="vsT03FMYi7_P-uipVstn-15" value="PK IdPers" style="text;strokeColor=none;fillColor=none;align=left;verticalAlign=middle;spacingLeft=4;spacingRight=4;overflow=hidden;points=[[0,0.5],[1,0.5]];portConstraint=eastwest;rotatable=0;whiteSpace=wrap;html=1;" vertex="1" parent="vsT03FMYi7_P-uipVstn-14">
          <mxGeometry y="20" width="140" height="30" as="geometry" />
        </mxCell>
        <mxCell id="vsT03FMYi7_P-uipVstn-16" value="NomPers&lt;br&gt;" style="text;strokeColor=none;fillColor=none;align=left;verticalAlign=middle;spacingLeft=4;spacingRight=4;overflow=hidden;points=[[0,0.5],[1,0.5]];portConstraint=eastwest;rotatable=0;whiteSpace=wrap;html=1;" vertex="1" parent="vsT03FMYi7_P-uipVstn-14">
          <mxGeometry y="50" width="140" height="30" as="geometry" />
        </mxCell>
        <mxCell id="vsT03FMYi7_P-uipVstn-17" value="AdressePers" style="text;strokeColor=none;fillColor=none;align=left;verticalAlign=middle;spacingLeft=4;spacingRight=4;overflow=hidden;points=[[0,0.5],[1,0.5]];portConstraint=eastwest;rotatable=0;whiteSpace=wrap;html=1;" vertex="1" parent="vsT03FMYi7_P-uipVstn-14">
          <mxGeometry y="80" width="140" height="30" as="geometry" />
        </mxCell>
        <mxCell id="vsT03FMYi7_P-uipVstn-56" value="DateNaissancePers" style="text;strokeColor=none;fillColor=none;align=left;verticalAlign=middle;spacingLeft=4;spacingRight=4;overflow=hidden;points=[[0,0.5],[1,0.5]];portConstraint=eastwest;rotatable=0;whiteSpace=wrap;html=1;" vertex="1" parent="vsT03FMYi7_P-uipVstn-14">
          <mxGeometry y="110" width="140" height="30" as="geometry" />
        </mxCell>
        <mxCell id="vsT03FMYi7_P-uipVstn-74" style="edgeStyle=orthogonalEdgeStyle;rounded=0;orthogonalLoop=1;jettySize=auto;html=1;exitX=0.5;exitY=0;exitDx=0;exitDy=0;entryX=0.5;entryY=1;entryDx=0;entryDy=0;" edge="1" parent="1" source="vsT03FMYi7_P-uipVstn-18" target="vsT03FMYi7_P-uipVstn-14">
          <mxGeometry relative="1" as="geometry" />
        </mxCell>
        <mxCell id="vsT03FMYi7_P-uipVstn-18" value="Personnel" style="swimlane;fontStyle=0;childLayout=stackLayout;horizontal=1;startSize=20;horizontalStack=0;resizeParent=1;resizeParentMax=0;resizeLast=0;collapsible=1;marginBottom=0;whiteSpace=wrap;html=1;" vertex="1" parent="1">
          <mxGeometry x="120" y="-100" width="140" height="80" as="geometry" />
        </mxCell>
        <mxCell id="vsT03FMYi7_P-uipVstn-19" value="Fonction" style="text;strokeColor=none;fillColor=none;align=left;verticalAlign=middle;spacingLeft=4;spacingRight=4;overflow=hidden;points=[[0,0.5],[1,0.5]];portConstraint=eastwest;rotatable=0;whiteSpace=wrap;html=1;" vertex="1" parent="vsT03FMYi7_P-uipVstn-18">
          <mxGeometry y="20" width="140" height="30" as="geometry" />
        </mxCell>
        <mxCell id="vsT03FMYi7_P-uipVstn-21" value="Departement" style="text;strokeColor=none;fillColor=none;align=left;verticalAlign=middle;spacingLeft=4;spacingRight=4;overflow=hidden;points=[[0,0.5],[1,0.5]];portConstraint=eastwest;rotatable=0;whiteSpace=wrap;html=1;" vertex="1" parent="vsT03FMYi7_P-uipVstn-18">
          <mxGeometry y="50" width="140" height="30" as="geometry" />
        </mxCell>
        <mxCell id="vsT03FMYi7_P-uipVstn-23" value="Client" style="swimlane;fontStyle=0;childLayout=stackLayout;horizontal=1;startSize=20;horizontalStack=0;resizeParent=1;resizeParentMax=0;resizeLast=0;collapsible=1;marginBottom=0;whiteSpace=wrap;html=1;" vertex="1" parent="1">
          <mxGeometry x="-70" y="-100" width="140" height="50" as="geometry" />
        </mxCell>
        <mxCell id="vsT03FMYi7_P-uipVstn-24" value="Nationnalité" style="text;strokeColor=none;fillColor=none;align=left;verticalAlign=middle;spacingLeft=4;spacingRight=4;overflow=hidden;points=[[0,0.5],[1,0.5]];portConstraint=eastwest;rotatable=0;whiteSpace=wrap;html=1;" vertex="1" parent="vsT03FMYi7_P-uipVstn-23">
          <mxGeometry y="20" width="140" height="30" as="geometry" />
        </mxCell>
        <mxCell id="vsT03FMYi7_P-uipVstn-26" value="Reservation" style="swimlane;fontStyle=0;childLayout=stackLayout;horizontal=1;startSize=20;horizontalStack=0;resizeParent=1;resizeParentMax=0;resizeLast=0;collapsible=1;marginBottom=0;whiteSpace=wrap;html=1;" vertex="1" parent="1">
          <mxGeometry x="-403" y="75" width="140" height="140" as="geometry" />
        </mxCell>
        <mxCell id="vsT03FMYi7_P-uipVstn-27" value="PK dateDebut" style="text;strokeColor=none;fillColor=none;align=left;verticalAlign=middle;spacingLeft=4;spacingRight=4;overflow=hidden;points=[[0,0.5],[1,0.5]];portConstraint=eastwest;rotatable=0;whiteSpace=wrap;html=1;" vertex="1" parent="vsT03FMYi7_P-uipVstn-26">
          <mxGeometry y="20" width="140" height="30" as="geometry" />
        </mxCell>
        <mxCell id="vsT03FMYi7_P-uipVstn-28" value="PrixR" style="text;strokeColor=none;fillColor=none;align=left;verticalAlign=middle;spacingLeft=4;spacingRight=4;overflow=hidden;points=[[0,0.5],[1,0.5]];portConstraint=eastwest;rotatable=0;whiteSpace=wrap;html=1;" vertex="1" parent="vsT03FMYi7_P-uipVstn-26">
          <mxGeometry y="50" width="140" height="30" as="geometry" />
        </mxCell>
        <mxCell id="vsT03FMYi7_P-uipVstn-29" value="DateFin" style="text;strokeColor=none;fillColor=none;align=left;verticalAlign=middle;spacingLeft=4;spacingRight=4;overflow=hidden;points=[[0,0.5],[1,0.5]];portConstraint=eastwest;rotatable=0;whiteSpace=wrap;html=1;" vertex="1" parent="vsT03FMYi7_P-uipVstn-26">
          <mxGeometry y="80" width="140" height="30" as="geometry" />
        </mxCell>
        <mxCell id="vsT03FMYi7_P-uipVstn-30" value="NbAcomp" style="text;strokeColor=none;fillColor=none;align=left;verticalAlign=middle;spacingLeft=4;spacingRight=4;overflow=hidden;points=[[0,0.5],[1,0.5]];portConstraint=eastwest;rotatable=0;whiteSpace=wrap;html=1;" vertex="1" parent="vsT03FMYi7_P-uipVstn-26">
          <mxGeometry y="110" width="140" height="30" as="geometry" />
        </mxCell>
        <mxCell id="vsT03FMYi7_P-uipVstn-32" value="Service" style="swimlane;fontStyle=0;childLayout=stackLayout;horizontal=1;startSize=20;horizontalStack=0;resizeParent=1;resizeParentMax=0;resizeLast=0;collapsible=1;marginBottom=0;whiteSpace=wrap;html=1;" vertex="1" parent="1">
          <mxGeometry x="-403" y="270" width="140" height="170" as="geometry" />
        </mxCell>
        <mxCell id="vsT03FMYi7_P-uipVstn-33" value="PK date" style="text;strokeColor=none;fillColor=none;align=left;verticalAlign=middle;spacingLeft=4;spacingRight=4;overflow=hidden;points=[[0,0.5],[1,0.5]];portConstraint=eastwest;rotatable=0;whiteSpace=wrap;html=1;" vertex="1" parent="vsT03FMYi7_P-uipVstn-32">
          <mxGeometry y="20" width="140" height="30" as="geometry" />
        </mxCell>
        <mxCell id="vsT03FMYi7_P-uipVstn-34" value="PrixS" style="text;strokeColor=none;fillColor=none;align=left;verticalAlign=middle;spacingLeft=4;spacingRight=4;overflow=hidden;points=[[0,0.5],[1,0.5]];portConstraint=eastwest;rotatable=0;whiteSpace=wrap;html=1;" vertex="1" parent="vsT03FMYi7_P-uipVstn-32">
          <mxGeometry y="50" width="140" height="30" as="geometry" />
        </mxCell>
        <mxCell id="vsT03FMYi7_P-uipVstn-35" value="QuantitéS" style="text;strokeColor=none;fillColor=none;align=left;verticalAlign=middle;spacingLeft=4;spacingRight=4;overflow=hidden;points=[[0,0.5],[1,0.5]];portConstraint=eastwest;rotatable=0;whiteSpace=wrap;html=1;" vertex="1" parent="vsT03FMYi7_P-uipVstn-32">
          <mxGeometry y="80" width="140" height="30" as="geometry" />
        </mxCell>
        <mxCell id="vsT03FMYi7_P-uipVstn-36" value="Payé" style="text;strokeColor=none;fillColor=none;align=left;verticalAlign=middle;spacingLeft=4;spacingRight=4;overflow=hidden;points=[[0,0.5],[1,0.5]];portConstraint=eastwest;rotatable=0;whiteSpace=wrap;html=1;" vertex="1" parent="vsT03FMYi7_P-uipVstn-32">
          <mxGeometry y="110" width="140" height="30" as="geometry" />
        </mxCell>
        <mxCell id="vsT03FMYi7_P-uipVstn-37" value="NomS" style="text;strokeColor=none;fillColor=none;align=left;verticalAlign=middle;spacingLeft=4;spacingRight=4;overflow=hidden;points=[[0,0.5],[1,0.5]];portConstraint=eastwest;rotatable=0;whiteSpace=wrap;html=1;" vertex="1" parent="vsT03FMYi7_P-uipVstn-32">
          <mxGeometry y="140" width="140" height="30" as="geometry" />
        </mxCell>
        <mxCell id="vsT03FMYi7_P-uipVstn-38" value="Hotel" style="swimlane;fontStyle=0;childLayout=stackLayout;horizontal=1;startSize=20;horizontalStack=0;resizeParent=1;resizeParentMax=0;resizeLast=0;collapsible=1;marginBottom=0;whiteSpace=wrap;html=1;" vertex="1" parent="1">
          <mxGeometry x="110" y="50" width="140" height="200" as="geometry" />
        </mxCell>
        <mxCell id="vsT03FMYi7_P-uipVstn-39" value="PK codeH" style="text;strokeColor=none;fillColor=none;align=left;verticalAlign=middle;spacingLeft=4;spacingRight=4;overflow=hidden;points=[[0,0.5],[1,0.5]];portConstraint=eastwest;rotatable=0;whiteSpace=wrap;html=1;" vertex="1" parent="vsT03FMYi7_P-uipVstn-38">
          <mxGeometry y="20" width="140" height="30" as="geometry" />
        </mxCell>
        <mxCell id="vsT03FMYi7_P-uipVstn-40" value="nomH" style="text;strokeColor=none;fillColor=none;align=left;verticalAlign=middle;spacingLeft=4;spacingRight=4;overflow=hidden;points=[[0,0.5],[1,0.5]];portConstraint=eastwest;rotatable=0;whiteSpace=wrap;html=1;" vertex="1" parent="vsT03FMYi7_P-uipVstn-38">
          <mxGeometry y="50" width="140" height="30" as="geometry" />
        </mxCell>
        <mxCell id="vsT03FMYi7_P-uipVstn-41" value="addH" style="text;strokeColor=none;fillColor=none;align=left;verticalAlign=middle;spacingLeft=4;spacingRight=4;overflow=hidden;points=[[0,0.5],[1,0.5]];portConstraint=eastwest;rotatable=0;whiteSpace=wrap;html=1;" vertex="1" parent="vsT03FMYi7_P-uipVstn-38">
          <mxGeometry y="80" width="140" height="30" as="geometry" />
        </mxCell>
        <mxCell id="vsT03FMYi7_P-uipVstn-42" value="GPS" style="text;strokeColor=none;fillColor=none;align=left;verticalAlign=middle;spacingLeft=4;spacingRight=4;overflow=hidden;points=[[0,0.5],[1,0.5]];portConstraint=eastwest;rotatable=0;whiteSpace=wrap;html=1;" vertex="1" parent="vsT03FMYi7_P-uipVstn-38">
          <mxGeometry y="110" width="140" height="30" as="geometry" />
        </mxCell>
        <mxCell id="vsT03FMYi7_P-uipVstn-43" value="nChambre" style="text;strokeColor=none;fillColor=none;align=left;verticalAlign=middle;spacingLeft=4;spacingRight=4;overflow=hidden;points=[[0,0.5],[1,0.5]];portConstraint=eastwest;rotatable=0;whiteSpace=wrap;html=1;" vertex="1" parent="vsT03FMYi7_P-uipVstn-38">
          <mxGeometry y="140" width="140" height="30" as="geometry" />
        </mxCell>
        <mxCell id="vsT03FMYi7_P-uipVstn-44" value="Qualité" style="text;strokeColor=none;fillColor=none;align=left;verticalAlign=middle;spacingLeft=4;spacingRight=4;overflow=hidden;points=[[0,0.5],[1,0.5]];portConstraint=eastwest;rotatable=0;whiteSpace=wrap;html=1;" vertex="1" parent="vsT03FMYi7_P-uipVstn-38">
          <mxGeometry y="170" width="140" height="30" as="geometry" />
        </mxCell>
        <mxCell id="vsT03FMYi7_P-uipVstn-72" style="edgeStyle=orthogonalEdgeStyle;rounded=0;orthogonalLoop=1;jettySize=auto;html=1;entryX=0;entryY=0.5;entryDx=0;entryDy=0;" edge="1" parent="1" source="vsT03FMYi7_P-uipVstn-45" target="vsT03FMYi7_P-uipVstn-41">
          <mxGeometry relative="1" as="geometry" />
        </mxCell>
        <mxCell id="vsT03FMYi7_P-uipVstn-45" value="" style="swimlane;startSize=0;" vertex="1" parent="1">
          <mxGeometry x="-150" y="80" width="160" height="130" as="geometry" />
        </mxCell>
        <mxCell id="vsT03FMYi7_P-uipVstn-49" value="" style="swimlane;startSize=0;" vertex="1" parent="1">
          <mxGeometry x="-160" y="240" width="160" height="130" as="geometry" />
        </mxCell>
        <mxCell id="vsT03FMYi7_P-uipVstn-51" style="edgeStyle=orthogonalEdgeStyle;rounded=0;orthogonalLoop=1;jettySize=auto;html=1;entryX=0.51;entryY=0.987;entryDx=0;entryDy=0;entryPerimeter=0;" edge="1" parent="1" source="vsT03FMYi7_P-uipVstn-49" target="vsT03FMYi7_P-uipVstn-44">
          <mxGeometry relative="1" as="geometry" />
        </mxCell>
        <mxCell id="vsT03FMYi7_P-uipVstn-67" style="edgeStyle=orthogonalEdgeStyle;rounded=0;orthogonalLoop=1;jettySize=auto;html=1;entryX=0;entryY=0.5;entryDx=0;entryDy=0;" edge="1" parent="1" source="vsT03FMYi7_P-uipVstn-59" target="vsT03FMYi7_P-uipVstn-49">
          <mxGeometry relative="1" as="geometry" />
        </mxCell>
        <mxCell id="vsT03FMYi7_P-uipVstn-59" value="" style="swimlane;startSize=0;" vertex="1" parent="1">
          <mxGeometry x="-413" y="260" width="160" height="195" as="geometry" />
        </mxCell>
        <mxCell id="vsT03FMYi7_P-uipVstn-62" style="edgeStyle=orthogonalEdgeStyle;rounded=0;orthogonalLoop=1;jettySize=auto;html=1;entryX=0;entryY=0.5;entryDx=0;entryDy=0;" edge="1" parent="1" source="vsT03FMYi7_P-uipVstn-61" target="vsT03FMYi7_P-uipVstn-45">
          <mxGeometry relative="1" as="geometry" />
        </mxCell>
        <mxCell id="vsT03FMYi7_P-uipVstn-61" value="" style="swimlane;startSize=0;" vertex="1" parent="1">
          <mxGeometry x="-413" y="65" width="160" height="160" as="geometry" />
        </mxCell>
        <mxCell id="vsT03FMYi7_P-uipVstn-65" style="edgeStyle=orthogonalEdgeStyle;rounded=0;orthogonalLoop=1;jettySize=auto;html=1;exitX=0.5;exitY=1;exitDx=0;exitDy=0;entryX=0.5;entryY=0;entryDx=0;entryDy=0;endArrow=none;endFill=0;" edge="1" parent="1" source="vsT03FMYi7_P-uipVstn-63" target="vsT03FMYi7_P-uipVstn-61">
          <mxGeometry relative="1" as="geometry" />
        </mxCell>
        <mxCell id="vsT03FMYi7_P-uipVstn-63" value="Reserve" style="rhombus;whiteSpace=wrap;html=1;" vertex="1" parent="1">
          <mxGeometry x="-373" y="-105" width="80" height="80" as="geometry" />
        </mxCell>
        <mxCell id="vsT03FMYi7_P-uipVstn-64" style="edgeStyle=orthogonalEdgeStyle;rounded=0;orthogonalLoop=1;jettySize=auto;html=1;entryX=1;entryY=0.5;entryDx=0;entryDy=0;endArrow=none;endFill=0;" edge="1" parent="1" source="vsT03FMYi7_P-uipVstn-24" target="vsT03FMYi7_P-uipVstn-63">
          <mxGeometry relative="1" as="geometry" />
        </mxCell>
        <mxCell id="vsT03FMYi7_P-uipVstn-71" style="edgeStyle=orthogonalEdgeStyle;rounded=0;orthogonalLoop=1;jettySize=auto;html=1;entryX=0.5;entryY=1;entryDx=0;entryDy=0;endArrow=none;endFill=0;" edge="1" parent="1" source="vsT03FMYi7_P-uipVstn-68" target="vsT03FMYi7_P-uipVstn-49">
          <mxGeometry relative="1" as="geometry">
            <Array as="points">
              <mxPoint x="374" y="390" />
              <mxPoint x="-80" y="390" />
            </Array>
          </mxGeometry>
        </mxCell>
        <mxCell id="vsT03FMYi7_P-uipVstn-68" value="Dirige" style="rhombus;whiteSpace=wrap;html=1;" vertex="1" parent="1">
          <mxGeometry x="334" y="65" width="80" height="80" as="geometry" />
        </mxCell>
        <mxCell id="vsT03FMYi7_P-uipVstn-70" style="edgeStyle=orthogonalEdgeStyle;rounded=0;orthogonalLoop=1;jettySize=auto;html=1;exitX=1;exitY=0.5;exitDx=0;exitDy=0;entryX=0.5;entryY=0;entryDx=0;entryDy=0;endArrow=none;endFill=0;" edge="1" parent="1" source="vsT03FMYi7_P-uipVstn-21" target="vsT03FMYi7_P-uipVstn-68">
          <mxGeometry relative="1" as="geometry" />
        </mxCell>
        <mxCell id="vsT03FMYi7_P-uipVstn-76" style="edgeStyle=orthogonalEdgeStyle;rounded=0;orthogonalLoop=1;jettySize=auto;html=1;exitX=0.5;exitY=0;exitDx=0;exitDy=0;entryX=0.5;entryY=1;entryDx=0;entryDy=0;entryPerimeter=0;" edge="1" parent="1" source="vsT03FMYi7_P-uipVstn-23" target="vsT03FMYi7_P-uipVstn-56">
          <mxGeometry relative="1" as="geometry" />
        </mxCell>
        <mxCell id="vsT03FMYi7_P-uipVstn-77" value="0,1" style="text;html=1;strokeColor=none;fillColor=none;align=center;verticalAlign=middle;whiteSpace=wrap;rounded=0;" vertex="1" parent="1">
          <mxGeometry x="330" y="-39" width="60" height="30" as="geometry" />
        </mxCell>
        <mxCell id="vsT03FMYi7_P-uipVstn-80" value="1,1" style="text;html=1;strokeColor=none;fillColor=none;align=center;verticalAlign=middle;whiteSpace=wrap;rounded=0;" vertex="1" parent="1">
          <mxGeometry x="-92" y="394" width="60" height="30" as="geometry" />
        </mxCell>
        <mxCell id="vsT03FMYi7_P-uipVstn-86" style="edgeStyle=orthogonalEdgeStyle;rounded=0;orthogonalLoop=1;jettySize=auto;html=1;exitX=1;exitY=0;exitDx=0;exitDy=0;entryX=0.5;entryY=0;entryDx=0;entryDy=0;" edge="1" parent="1" source="vsT03FMYi7_P-uipVstn-82" target="vsT03FMYi7_P-uipVstn-85">
          <mxGeometry relative="1" as="geometry">
            <Array as="points">
              <mxPoint x="-70" y="-150" />
              <mxPoint x="-530" y="-150" />
            </Array>
          </mxGeometry>
        </mxCell>
        <mxCell id="vsT03FMYi7_P-uipVstn-82" value="0,n" style="text;html=1;strokeColor=none;fillColor=none;align=center;verticalAlign=middle;whiteSpace=wrap;rounded=0;" vertex="1" parent="1">
          <mxGeometry x="-130" y="-70" width="60" height="30" as="geometry" />
        </mxCell>
        <mxCell id="vsT03FMYi7_P-uipVstn-84" value="1,1" style="text;html=1;strokeColor=none;fillColor=none;align=center;verticalAlign=middle;whiteSpace=wrap;rounded=0;" vertex="1" parent="1">
          <mxGeometry x="-339" y="35" width="60" height="30" as="geometry" />
        </mxCell>
        <mxCell id="vsT03FMYi7_P-uipVstn-87" style="edgeStyle=orthogonalEdgeStyle;rounded=0;orthogonalLoop=1;jettySize=auto;html=1;entryX=0;entryY=0.5;entryDx=0;entryDy=0;" edge="1" parent="1" source="vsT03FMYi7_P-uipVstn-85" target="vsT03FMYi7_P-uipVstn-59">
          <mxGeometry relative="1" as="geometry" />
        </mxCell>
        <mxCell id="vsT03FMYi7_P-uipVstn-85" value="Commande" style="rhombus;whiteSpace=wrap;html=1;" vertex="1" parent="1">
          <mxGeometry x="-570" y="317.5" width="80" height="80" as="geometry" />
        </mxCell>
      </root>
    </mxGraphModel>
  </diagram>
</mxfile>
